# xmcd
#
# Track frame offsets: 
#        150
#        17274
#        35434
#        59368
#        78190
#        96546
#        117518
#        143360
#        171193
#        184612
#        201370
#        221094
#        241404
#
# Disc length: 3727 seconds
#
# Revision: 0
# Processed by: cddbd v1.5.1PL0 Copyright (c) Steve Scherf et al.
# Submitted via: ExactAudioCopy v0.95a4
#
DISCID=af0e8d0d
DTITLE=Marco Borsato - Zien
DYEAR=2003
DGENRE=
TTITLE0=Zeg Me Wie Je Ziet
TTITLE1=Afscheid Nemen Bestaat Niet
TTITLE2=Zeg Het Maar
TTITLE3=Voorbij (Duet Met Do)
TTITLE4=Laat Me Gssn
TTITLE5=Lentesneeuw
TTITLE6=Dat Ben JIj
TTITLE7=Dromer
TTITLE8=Alleen
TTITLE9=Een Nieuwe Dag
TTITLE10=Als Alle Lichten Zijn Gedoofd
TTITLE11=Ik Kan Het Niet Alleen
TTITLE12=Vlinder
EXTD=
EXTT0=
EXTT1=
EXTT2=
EXTT3=
EXTT4=
EXTT5=
EXTT6=
EXTT7=
EXTT8=
EXTT9=
EXTT10=
EXTT11=
EXTT12=
PLAYORDER=
